{
  "asset": {
    "version": "2.0",
    "generator": "THREE.GLTFExporter r169"
  },
  "scenes": [
    {
      "name": "Scene",
      "nodes": [
        9,
        10
      ]
    }
  ],
  "scene": 0,
  "nodes": [
    {
      "matrix": [
        1,
        0,
        0,
        0,
        0,
        1,
        0,
        0,
        0,
        0,
        1,
        0,
        0.14929187297821045,
        -1.0601298809051514,
        -0.0036749839782714844,
        1
      ],
      "name": "Cube_cell001",
      "extras": {
        "name": "Cube_cell.001"
      },
      "mesh": 1
    },
    {
      "matrix": [
        1,
        0,
        0,
        0,
        0,
        1,
        0,
        0,
        0,
        0,
        1,
        0,
        0.33492523431777954,
        3.1456360816955566,
        -0.8029890656471252,
        1
      ],
      "name": "Cube_cell",
      "extras": {
        "name": "Cube_cell"
      },
      "mesh": 0,
      "children": [
        0
      ]
    },
    {
      "matrix": [
        0.9998900946506721,
        -0.009579116579250847,
        0.011315438333315558,
        0,
        0.009579590165866805,
        0.9999541145970842,
        0.000012347728802888201,
        0,
        -0.01131503740020384,
        0.00009605089005887556,
        0.9999359783019365,
        0,
        0.5161229372024536,
        2.999796152114868,
        0.37198665738105774,
        1
      ],
      "name": "Cube_cell002",
      "extras": {
        "name": "Cube_cell.002"
      },
      "mesh": 2
    },
    {
      "matrix": [
        1,
        0,
        0,
        0,
        0,
        1,
        0,
        0,
        0,
        0,
        1,
        0,
        0.8460326194763184,
        1.961504578590393,
        0.4168221354484558,
        1
      ],
      "name": "Cube_cell003",
      "extras": {
        "name": "Cube_cell.003"
      },
      "mesh": 3
    },
    {
      "matrix": [
        1,
        0,
        0,
        0,
        0,
        1,
        0,
        0,
        0,
        0,
        1,
        0,
        -0.6064896583557129,
        3.0815024375915527,
        -1.238314151763916,
        1
      ],
      "name": "Cube_cell004",
      "extras": {
        "name": "Cube_cell.004"
      },
      "mesh": 4
    },
    {
      "matrix": [
        1,
        0,
        0,
        0,
        0,
        1,
        0,
        0,
        0,
        0,
        1,
        0,
        -0.6745300889015198,
        2.1634693145751953,
        -1.3958417177200317,
        1
      ],
      "name": "Cube_cell005",
      "extras": {
        "name": "Cube_cell.005"
      },
      "mesh": 5
    },
    {
      "matrix": [
        0.9998381622268184,
        0.017298609871306606,
        -0.004940388489755689,
        0,
        -0.01730324601346168,
        0.9998498850658025,
        -0.000897217504892693,
        0,
        0.004924126248134945,
        0.0009825570586617619,
        0.9999873937011942,
        0,
        -0.5350192189216614,
        3.44762921333313,
        0.11542581766843796,
        1
      ],
      "name": "Cube_cell006",
      "extras": {
        "name": "Cube_cell.006"
      },
      "mesh": 6
    },
    {
      "matrix": [
        1,
        0,
        0,
        0,
        0,
        1,
        0,
        0,
        0,
        0,
        1,
        0,
        -0.35932835936546326,
        2.2729580402374268,
        -0.29278936982154846,
        1
      ],
      "name": "Cube_cell007",
      "extras": {
        "name": "Cube_cell.007"
      },
      "mesh": 7
    },
    {
      "matrix": [
        1,
        0,
        0,
        0,
        0,
        1,
        0,
        0,
        0,
        0,
        1,
        0,
        0.21200862526893616,
        3.137800455093384,
        -0.16399350762367249,
        1
      ],
      "name": "Force",
      "extras": {
        "name": "Force"
      }
    },
    {
      "name": "newwebcube.glb",
      "children": [
        1,
        2,
        3,
        4,
        5,
        6,
        7,
        8
      ]
    },
    {
      "matrix": [
        0.3746982707297858,
        0,
        0,
        0,
        0,
        1,
        0,
        0,
        0,
        0,
        0.8188320452027815,
        0,
        -3.4831797509664,
        2.6895736679489666,
        -0.057273461621162536,
        1
      ],
      "name": "DirectionalLight",
      "extensions": {
        "KHR_lights_punctual": {
          "light": 0
        }
      }
    }
  ],
  "bufferViews": [
    {
      "buffer": 0,
      "byteOffset": 0,
      "byteLength": 624,
      "target": 34962,
      "byteStride": 12
    },
    {
      "buffer": 0,
      "byteOffset": 624,
      "byteLength": 624,
      "target": 34962,
      "byteStride": 12
    },
    {
      "buffer": 0,
      "byteOffset": 1248,
      "byteLength": 416,
      "target": 34962,
      "byteStride": 8
    },
    {
      "buffer": 0,
      "byteOffset": 1664,
      "byteLength": 336,
      "target": 34963
    },
    {
      "buffer": 0,
      "byteOffset": 2000,
      "byteLength": 720,
      "target": 34962,
      "byteStride": 12
    },
    {
      "buffer": 0,
      "byteOffset": 2720,
      "byteLength": 720,
      "target": 34962,
      "byteStride": 12
    },
    {
      "buffer": 0,
      "byteOffset": 3440,
      "byteLength": 480,
      "target": 34962,
      "byteStride": 8
    },
    {
      "buffer": 0,
      "byteOffset": 3920,
      "byteLength": 384,
      "target": 34963
    },
    {
      "buffer": 0,
      "byteOffset": 4304,
      "byteLength": 552,
      "target": 34962,
      "byteStride": 12
    },
    {
      "buffer": 0,
      "byteOffset": 4856,
      "byteLength": 552,
      "target": 34962,
      "byteStride": 12
    },
    {
      "buffer": 0,
      "byteOffset": 5408,
      "byteLength": 368,
      "target": 34962,
      "byteStride": 8
    },
    {
      "buffer": 0,
      "byteOffset": 5776,
      "byteLength": 312,
      "target": 34963
    },
    {
      "buffer": 0,
      "byteOffset": 6088,
      "byteLength": 456,
      "target": 34962,
      "byteStride": 12
    },
    {
      "buffer": 0,
      "byteOffset": 6544,
      "byteLength": 456,
      "target": 34962,
      "byteStride": 12
    },
    {
      "buffer": 0,
      "byteOffset": 7000,
      "byteLength": 304,
      "target": 34962,
      "byteStride": 8
    },
    {
      "buffer": 0,
      "byteOffset": 7304,
      "byteLength": 264,
      "target": 34963
    },
    {
      "buffer": 0,
      "byteOffset": 7568,
      "byteLength": 528,
      "target": 34962,
      "byteStride": 12
    },
    {
      "buffer": 0,
      "byteOffset": 8096,
      "byteLength": 528,
      "target": 34962,
      "byteStride": 12
    },
    {
      "buffer": 0,
      "byteOffset": 8624,
      "byteLength": 352,
      "target": 34962,
      "byteStride": 8
    },
    {
      "buffer": 0,
      "byteOffset": 8976,
      "byteLength": 288,
      "target": 34963
    },
    {
      "buffer": 0,
      "byteOffset": 9264,
      "byteLength": 432,
      "target": 34962,
      "byteStride": 12
    },
    {
      "buffer": 0,
      "byteOffset": 9696,
      "byteLength": 432,
      "target": 34962,
      "byteStride": 12
    },
    {
      "buffer": 0,
      "byteOffset": 10128,
      "byteLength": 288,
      "target": 34962,
      "byteStride": 8
    },
    {
      "buffer": 0,
      "byteOffset": 10416,
      "byteLength": 240,
      "target": 34963
    },
    {
      "buffer": 0,
      "byteOffset": 10656,
      "byteLength": 528,
      "target": 34962,
      "byteStride": 12
    },
    {
      "buffer": 0,
      "byteOffset": 11184,
      "byteLength": 528,
      "target": 34962,
      "byteStride": 12
    },
    {
      "buffer": 0,
      "byteOffset": 11712,
      "byteLength": 352,
      "target": 34962,
      "byteStride": 8
    },
    {
      "buffer": 0,
      "byteOffset": 12064,
      "byteLength": 288,
      "target": 34963
    },
    {
      "buffer": 0,
      "byteOffset": 12352,
      "byteLength": 816,
      "target": 34962,
      "byteStride": 12
    },
    {
      "buffer": 0,
      "byteOffset": 13168,
      "byteLength": 816,
      "target": 34962,
      "byteStride": 12
    },
    {
      "buffer": 0,
      "byteOffset": 13984,
      "byteLength": 544,
      "target": 34962,
      "byteStride": 8
    },
    {
      "buffer": 0,
      "byteOffset": 14528,
      "byteLength": 480,
      "target": 34963
    }
  ],
  "buffers": [
    {
      "uri": "newwebscene_data.bin",
      "byteLength": 15008
    }
  ],
  "accessors": [
    {
      "bufferView": 0,
      "componentType": 5126,
      "count": 52,
      "max": [
        0.8222067952156067,
        0.6271817088127136,
        0.6117242574691772
      ],
      "min": [
        -0.8222067952156067,
        -0.6271817088127136,
        -0.6117242574691772
      ],
      "type": "VEC3"
    },
    {
      "bufferView": 1,
      "componentType": 5126,
      "count": 52,
      "max": [
        1,
        1,
        0.9714336395263672
      ],
      "min": [
        -0.9079499244689941,
        -0.9685978293418884,
        -1
      ],
      "type": "VEC3"
    },
    {
      "bufferView": 2,
      "componentType": 5126,
      "count": 52,
      "max": [
        1,
        1
      ],
      "min": [
        0,
        0
      ],
      "type": "VEC2"
    },
    {
      "bufferView": 3,
      "componentType": 5125,
      "count": 84,
      "max": [
        51
      ],
      "min": [
        0
      ],
      "type": "SCALAR"
    },
    {
      "bufferView": 4,
      "componentType": 5126,
      "count": 60,
      "max": [
        0.7683700323104858,
        0.6128952503204346,
        1.06429123878479
      ],
      "min": [
        -0.8001261949539185,
        -0.5013455152511597,
        -0.6457422375679016
      ],
      "type": "VEC3"
    },
    {
      "bufferView": 5,
      "componentType": 5126,
      "count": 60,
      "max": [
        1,
        0.9680125713348389,
        0.8519467711448669
      ],
      "min": [
        -0.9019864797592163,
        -1,
        -1
      ],
      "type": "VEC3"
    },
    {
      "bufferView": 6,
      "componentType": 5126,
      "count": 60,
      "max": [
        1,
        1
      ],
      "min": [
        0,
        0
      ],
      "type": "VEC2"
    },
    {
      "bufferView": 7,
      "componentType": 5125,
      "count": 96,
      "max": [
        59
      ],
      "min": [
        0
      ],
      "type": "SCALAR"
    },
    {
      "bufferView": 8,
      "componentType": 5126,
      "count": 46,
      "max": [
        0.7906387448310852,
        0.6938207745552063,
        0.42439210414886475
      ],
      "min": [
        -0.5821512341499329,
        -0.7050110697746277,
        -0.6948953866958618
      ],
      "type": "VEC3"
    },
    {
      "bufferView": 9,
      "componentType": 5126,
      "count": 46,
      "max": [
        1,
        1,
        1
      ],
      "min": [
        -0.9995190501213074,
        -0.9942051768302917,
        -0.9709113240242004
      ],
      "type": "VEC3"
    },
    {
      "bufferView": 10,
      "componentType": 5126,
      "count": 46,
      "max": [
        1,
        1
      ],
      "min": [
        0,
        0
      ],
      "type": "VEC2"
    },
    {
      "bufferView": 11,
      "componentType": 5125,
      "count": 78,
      "max": [
        45
      ],
      "min": [
        0
      ],
      "type": "SCALAR"
    },
    {
      "bufferView": 12,
      "componentType": 5126,
      "count": 38,
      "max": [
        0.4460035562515259,
        0.2936055064201355,
        0.29398006200790405
      ],
      "min": [
        -0.5505653619766235,
        -0.37265950441360474,
        -0.5264267921447754
      ],
      "type": "VEC3"
    },
    {
      "bufferView": 13,
      "componentType": 5126,
      "count": 38,
      "max": [
        1,
        0.9942051768302917,
        1
      ],
      "min": [
        -0.8710313439369202,
        -1,
        -0.8506173491477966
      ],
      "type": "VEC3"
    },
    {
      "bufferView": 14,
      "componentType": 5126,
      "count": 38,
      "max": [
        1,
        0.9998883605003357
      ],
      "min": [
        0,
        0.05605435371398926
      ],
      "type": "VEC2"
    },
    {
      "bufferView": 15,
      "componentType": 5125,
      "count": 66,
      "max": [
        37
      ],
      "min": [
        0
      ],
      "type": "SCALAR"
    },
    {
      "bufferView": 16,
      "componentType": 5126,
      "count": 44,
      "max": [
        0.47122278809547424,
        0.6450321078300476,
        0.5748986005783081
      ],
      "min": [
        -0.28861328959465027,
        -0.4564982056617737,
        -0.2654864192008972
      ],
      "type": "VEC3"
    },
    {
      "bufferView": 17,
      "componentType": 5126,
      "count": 44,
      "max": [
        0.9064337015151978,
        1,
        0.9183656573295593
      ],
      "min": [
        -1,
        -0.9780418872833252,
        -1
      ],
      "type": "VEC3"
    },
    {
      "bufferView": 18,
      "componentType": 5126,
      "count": 44,
      "max": [
        1,
        1
      ],
      "min": [
        0,
        0
      ],
      "type": "VEC2"
    },
    {
      "bufferView": 19,
      "componentType": 5125,
      "count": 72,
      "max": [
        43
      ],
      "min": [
        0
      ],
      "type": "SCALAR"
    },
    {
      "bufferView": 20,
      "componentType": 5126,
      "count": 36,
      "max": [
        0.39245063066482544,
        0.40681397914886475,
        0.25586000084877014
      ],
      "min": [
        -0.20008206367492676,
        -0.526595950126648,
        -0.08786594867706299
      ],
      "type": "VEC3"
    },
    {
      "bufferView": 21,
      "componentType": 5126,
      "count": 36,
      "max": [
        0.8988132476806641,
        0.9802331924438477,
        0.9418156147003174
      ],
      "min": [
        -1,
        -1,
        -1
      ],
      "type": "VEC3"
    },
    {
      "bufferView": 22,
      "componentType": 5126,
      "count": 36,
      "max": [
        1,
        0.9998870491981506
      ],
      "min": [
        0,
        0.050436437129974365
      ],
      "type": "VEC2"
    },
    {
      "bufferView": 23,
      "componentType": 5125,
      "count": 60,
      "max": [
        35
      ],
      "min": [
        0
      ],
      "type": "SCALAR"
    },
    {
      "bufferView": 24,
      "componentType": 5126,
      "count": 44,
      "max": [
        0.23798984289169312,
        0.3530009984970093,
        0.5815826654434204
      ],
      "min": [
        -0.4149172306060791,
        -0.725584864616394,
        -0.7810385227203369
      ],
      "type": "VEC3"
    },
    {
      "bufferView": 25,
      "componentType": 5126,
      "count": 44,
      "max": [
        0.9994655847549438,
        1,
        1
      ],
      "min": [
        -1,
        -0.8608445525169373,
        -0.9197458028793335
      ],
      "type": "VEC3"
    },
    {
      "bufferView": 26,
      "componentType": 5126,
      "count": 44,
      "max": [
        1,
        1
      ],
      "min": [
        0,
        0
      ],
      "type": "VEC2"
    },
    {
      "bufferView": 27,
      "componentType": 5125,
      "count": 72,
      "max": [
        43
      ],
      "min": [
        0
      ],
      "type": "SCALAR"
    },
    {
      "bufferView": 28,
      "componentType": 5126,
      "count": 68,
      "max": [
        0.7860293388366699,
        0.8456718325614929,
        0.9097346067428589
      ],
      "min": [
        -0.5252538919448853,
        -0.6878339648246765,
        -1.0862473249435425
      ],
      "type": "VEC3"
    },
    {
      "bufferView": 29,
      "componentType": 5126,
      "count": 68,
      "max": [
        0.8710313439369202,
        0.8608446717262268,
        1
      ],
      "min": [
        -1,
        -1,
        -0.9418157339096069
      ],
      "type": "VEC3"
    },
    {
      "bufferView": 30,
      "componentType": 5126,
      "count": 68,
      "max": [
        1,
        1
      ],
      "min": [
        0,
        0
      ],
      "type": "VEC2"
    },
    {
      "bufferView": 31,
      "componentType": 5125,
      "count": 120,
      "max": [
        67
      ],
      "min": [
        0
      ],
      "type": "SCALAR"
    }
  ],
  "materials": [
    {
      "pbrMetallicRoughness": {
        "baseColorFactor": [
          0,
          0,
          0,
          1
        ],
        "metallicFactor": 1,
        "roughnessFactor": 1
      },
      "alphaMode": "BLEND",
      "doubleSided": true,
      "name": "Material",
      "extensions": {
        "KHR_materials_emissive_strength": {
          "emissiveStrength": 9.652276419917598
        }
      }
    }
  ],
  "meshes": [
    {
      "primitives": [
        {
          "mode": 4,
          "attributes": {
            "POSITION": 0,
            "NORMAL": 1,
            "TEXCOORD_0": 2
          },
          "indices": 3,
          "material": 0
        }
      ]
    },
    {
      "primitives": [
        {
          "mode": 4,
          "attributes": {
            "POSITION": 4,
            "NORMAL": 5,
            "TEXCOORD_0": 6
          },
          "indices": 7,
          "material": 0
        }
      ]
    },
    {
      "primitives": [
        {
          "mode": 4,
          "attributes": {
            "POSITION": 8,
            "NORMAL": 9,
            "TEXCOORD_0": 10
          },
          "indices": 11,
          "material": 0
        }
      ]
    },
    {
      "primitives": [
        {
          "mode": 4,
          "attributes": {
            "POSITION": 12,
            "NORMAL": 13,
            "TEXCOORD_0": 14
          },
          "indices": 15,
          "material": 0
        }
      ]
    },
    {
      "primitives": [
        {
          "mode": 4,
          "attributes": {
            "POSITION": 16,
            "NORMAL": 17,
            "TEXCOORD_0": 18
          },
          "indices": 19,
          "material": 0
        }
      ]
    },
    {
      "primitives": [
        {
          "mode": 4,
          "attributes": {
            "POSITION": 20,
            "NORMAL": 21,
            "TEXCOORD_0": 22
          },
          "indices": 23,
          "material": 0
        }
      ]
    },
    {
      "primitives": [
        {
          "mode": 4,
          "attributes": {
            "POSITION": 24,
            "NORMAL": 25,
            "TEXCOORD_0": 26
          },
          "indices": 27,
          "material": 0
        }
      ]
    },
    {
      "primitives": [
        {
          "mode": 4,
          "attributes": {
            "POSITION": 28,
            "NORMAL": 29,
            "TEXCOORD_0": 30
          },
          "indices": 31,
          "material": 0
        }
      ]
    }
  ],
  "extensions": {
    "KHR_lights_punctual": {
      "lights": [
        {
          "name": "DirectionalLight",
          "color": [
            1,
            1,
            1
          ],
          "intensity": 1230.56,
          "type": "directional"
        }
      ]
    }
  },
  "extensionsUsed": [
    "KHR_materials_emissive_strength",
    "KHR_lights_punctual"
  ]
}